<?xml version="1.0" encoding="UTF-8" standalone="no"?>
<!DOCTYPE svg PUBLIC "-//W3C//DTD SVG 1.1//EN" "http://www.w3.org/Graphics/SVG/1.1/DTD/svg11.dtd">
<svg width="100%" height="100%" viewBox="0 0 537 403" version="1.1" xmlns="http://www.w3.org/2000/svg" xmlns:xlink="http://www.w3.org/1999/xlink" xml:space="preserve" xmlns:serif="http://www.serif.com/" style="fill-rule:evenodd;clip-rule:evenodd;stroke-linejoin:round;stroke-miterlimit:2;">
    <g transform="matrix(1,0,0,1,-131.701,-98.7467)">
        <g transform="matrix(1,0,0,1,33.8975,31.8127)">
            <path d="M366.102,152.512C417.291,79.567 519.67,79.567 570.86,116.04C622.051,152.512 622.051,225.457 570.86,298.402C535.027,353.111 442.886,407.82 366.102,444.292C289.317,407.82 197.177,353.111 161.344,298.402C110.154,225.457 110.154,152.512 161.344,116.04C212.534,79.567 314.912,79.567 366.102,152.512Z" style="fill:rgb(255,0,0);fill-opacity:0;"/>
            <path d="M366.102,114.075C302.34,53.112 200.471,57.283 146.751,95.558C85.808,138.98 79.756,225.689 140.538,312.533C178.442,370.063 274.551,428.647 355.312,467.008C362.139,470.251 370.064,470.251 376.892,467.008C457.653,428.647 553.761,370.063 591.677,312.517C652.449,225.686 646.397,138.979 585.453,95.558C531.732,57.283 429.864,53.112 366.102,114.075ZM366.102,152.512C417.291,79.567 519.67,79.567 570.86,116.04C622.051,152.512 622.051,225.457 570.86,298.402C535.027,353.111 442.886,407.82 366.102,444.292C289.317,407.82 197.177,353.111 161.344,298.402C110.154,225.457 110.154,152.512 161.344,116.04C212.534,79.567 314.912,79.567 366.102,152.512Z"/>
        </g>
    </g>
</svg>
