<?xml version="1.0" encoding="UTF-8" standalone="no"?>
<!DOCTYPE svg PUBLIC "-//W3C//DTD SVG 1.1//EN" "http://www.w3.org/Graphics/SVG/1.1/DTD/svg11.dtd">
<svg width="100%" height="100%" viewBox="0 0 494 494" version="1.1" xmlns="http://www.w3.org/2000/svg" xmlns:xlink="http://www.w3.org/1999/xlink" xml:space="preserve" xmlns:serif="http://www.serif.com/" style="fill-rule:evenodd;clip-rule:evenodd;stroke-linejoin:round;stroke-miterlimit:2;">
    <g transform="matrix(1,0,0,1,-393.422,-116.141)">
        <g transform="matrix(0.645338,0,0,0.645338,226.984,138.986)">
            <circle cx="640" cy="342.477" r="228.214" style="fill:white;"/>
        </g>
        <g transform="matrix(0.61033,0,0,1.39372,249.389,-7.05835)">
            <path d="M665.45,93.969C665.45,90.893 659.748,88.396 652.725,88.396L627.275,88.396C620.252,88.396 614.55,90.893 614.55,93.969L614.55,133.724C614.55,136.799 620.252,139.296 627.275,139.296L652.725,139.296C659.748,139.296 665.45,136.799 665.45,133.724L665.45,93.969Z" style="fill:white;"/>
        </g>
        <g transform="matrix(3.73719e-17,0.61033,-1.39372,8.53405e-17,1009.78,-27.8921)">
            <path d="M665.45,93.969C665.45,90.893 659.748,88.396 652.725,88.396L627.275,88.396C620.252,88.396 614.55,90.893 614.55,93.969L614.55,133.724C614.55,136.799 620.252,139.296 627.275,139.296L652.725,139.296C659.748,139.296 665.45,136.799 665.45,133.724L665.45,93.969Z" style="fill:white;"/>
        </g>
        <g transform="matrix(-0.431568,-0.431568,0.985506,-0.985506,654.732,900.395)">
            <path d="M665.45,93.969C665.45,90.893 659.748,88.396 652.725,88.396L627.275,88.396C620.252,88.396 614.55,90.893 614.55,93.969L614.55,133.724C614.55,136.799 620.252,139.296 627.275,139.296L652.725,139.296C659.748,139.296 665.45,136.799 665.45,133.724L665.45,93.969Z" style="fill:white;"/>
        </g>
        <g transform="matrix(0.431568,-0.431568,0.985506,0.985506,102.324,377.451)">
            <path d="M665.45,93.969C665.45,90.893 659.748,88.396 652.725,88.396L627.275,88.396C620.252,88.396 614.55,90.893 614.55,93.969L614.55,133.724C614.55,136.799 620.252,139.296 627.275,139.296L652.725,139.296C659.748,139.296 665.45,136.799 665.45,133.724L665.45,93.969Z" style="fill:white;"/>
        </g>
        <g transform="matrix(-0.61033,-7.47439e-17,1.70681e-16,-1.39372,1030.61,732.497)">
            <path d="M665.45,93.969C665.45,90.893 659.748,88.396 652.725,88.396L627.275,88.396C620.252,88.396 614.55,90.893 614.55,93.969L614.55,133.724C614.55,136.799 620.252,139.296 627.275,139.296L652.725,139.296C659.748,139.296 665.45,136.799 665.45,133.724L665.45,93.969Z" style="fill:white;"/>
        </g>
        <g transform="matrix(3.73719e-17,-0.61033,1.39372,8.53405e-17,270.223,753.33)">
            <path d="M665.45,93.969C665.45,90.893 659.748,88.396 652.725,88.396L627.275,88.396C620.252,88.396 614.55,90.893 614.55,93.969L614.55,133.724C614.55,136.799 620.252,139.296 627.275,139.296L652.725,139.296C659.748,139.296 665.45,136.799 665.45,133.724L665.45,93.969Z" style="fill:white;"/>
        </g>
        <g transform="matrix(0.431568,0.431568,-0.985506,0.985506,625.268,-174.957)">
            <path d="M665.45,93.969C665.45,90.893 659.748,88.396 652.725,88.396L627.275,88.396C620.252,88.396 614.55,90.893 614.55,93.969L614.55,133.724C614.55,136.799 620.252,139.296 627.275,139.296L652.725,139.296C659.748,139.296 665.45,136.799 665.45,133.724L665.45,93.969Z" style="fill:white;"/>
        </g>
        <g transform="matrix(-0.431568,0.431568,-0.985506,-0.985506,1177.68,347.987)">
            <path d="M665.45,93.969C665.45,90.893 659.748,88.396 652.725,88.396L627.275,88.396C620.252,88.396 614.55,90.893 614.55,93.969L614.55,133.724C614.55,136.799 620.252,139.296 627.275,139.296L652.725,139.296C659.748,139.296 665.45,136.799 665.45,133.724L665.45,93.969Z" style="fill:white;"/>
        </g>
    </g>
</svg>
